<svg xmlns="http://www.w3.org/2000/svg" viewBox="0 0 40 40"><path d="M227.771 456.337c-38.235 0-76.687-9.533-111.516-29.143-6.462-3.637-8.753-11.827-5.112-18.289 3.637-6.455 11.82-8.763 18.289-5.112 78.341 44.11 177.506 30.451 241.168-33.2 78.53-78.534 78.53-206.31 0-284.844-78.534-78.534-206.317-78.54-284.858 0-78.53 78.534-78.53 206.31 0 284.844 5.245 5.245 5.245 13.75 0 18.995-5.238 5.245-13.743 5.245-18.988 0-89.003-89.01-89.003-233.824 0-322.834 89.003-89.003 233.831-89.003 322.834 0 89.003 89.01 89.003 233.824 0 322.834-43.842 43.838-102.566 66.749-161.817 66.749zm71.707-139.044a13.378 13.378 0 0 1-9.494-3.931l-142.617-142.617c-5.245-5.245-5.245-13.75 0-18.995 5.245-5.245 13.743-5.245 18.988 0l142.618 142.618c5.245 5.245 5.245 13.75 0 18.995a13.378 13.378 0 0 1-9.495 3.93zm-142.617 0a13.378 13.378 0 0 1-9.494-3.931c-5.245-5.245-5.245-13.75 0-18.995l142.617-142.617c5.245-5.245 13.743-5.245 18.988 0s5.245 13.75 0 18.995l-142.617 142.618a13.377 13.377 0 0 1-9.494 3.93z"/></svg>