<svg xmlns="http://www.w3.org/2000/svg" viewBox="0 0 40 40"><path d="M39.929 44.067l4.2-4.2 1.261 5.464zm-14.3-13.734l-1.591-1.591-4.778-4.774-1.591-1.591-9.849-9.849 4.773-4.774 9.849 9.846 1.592 1.591 4.773 4.774 1.593 1.594 12.426 12.429-4.773 4.774zm-15.776 12.589l-3.77 1.616-2.62-2.62 1.617-3.773 12.587-12.586 4.774 4.774zm-6.814-35.174a1.126 1.126 0 0 1 .007-1.585l3.182-3.183a1.12 1.12 0 0 1 1.585-.007l3.187 3.189-4.772 4.774zm34.355-1.914l4.774 4.773-11.768 11.77-4.775-4.777zm5.969-3.583v.007l2.377 2.377h.007l-3.18 3.187-2.387-2.387zm2.647 35.737l-14.02-14.02 9.352-9.352.876.878a1.126 1.126 0 0 1 0 1.594l-4.418 4.412a1.125 1.125 0 1 0 1.591 1.591l4.415-4.413a3.377 3.377 0 0 0 0-4.778l-.878-.878.826-.827 1.591-1.591-1.187-1.19 3.184-3.184a2.249 2.249 0 0 0-.007-3.186l-2.377-2.378a2.245 2.245 0 0 0-3.186-.006l-3.184 3.184-1.194-1.194-1.594 1.591-11.766 11.77-14.634-14.629a3.369 3.369 0 0 0-4.767.007l-3.178 3.182a3.374 3.374 0 0 0-.007 4.767l3.189 3.189.3.3 1.287 1.288 9.849 9.849-12.891 12.899-2.382 5.569 1.591 1.591-2.391 2.387 1.591 1.59 2.387-2.387 1.592 1.592 5.57-2.387 12.894-12.894 12.427 12.429 1.591 1.591 8.148 1.881a1.3 1.3 0 0 0 1.687-1.688z" fill-rule="evenodd"/></svg>